# xmcd
#
# Track frame offsets:
# 150
# 15722
# 38176
# 56116
# 74502
# 92247
# 105423
# 123335
# 133836
# 152361
# 176766
# 192254
# 211142
# 236271
# 255214
# 270814
# 302965
#
# Disc length: 4246 seconds
#
#
# Revision: 0
# Processed by: cddbd v1.5.2PL0 Copyright (c) Steve Scherf et al.
# Submitted via: FreeRIP 2.96 
#
DISCID=e0109411
DTITLE=Capoeira - Mestre Pahao 3
DYEAR=1900
DGENRE=Tribal
TTITLE0=Jé viva moce kamara
TTITLE1=Capoeiravá vi mestre
TTITLE2=Vás tu miré a birimbá
TTITLE3=Mea kia prá voce
TTITLE4=Vai vai vai, vei vei vei
TTITLE5=La la vé, la vél á vél á vá
TTITLE6=Praja
TTITLE7=Téré téré téré térééé
TTITLE8=Capoeira á be mai (csaj)
TTITLE9=Vei mai Maria
TTITLE10=Lé lé lé lélé lé á
TTITLE11=Maculelé (Agogo and Atabaki)
TTITLE12=Elé gá, vélé gá
TTITLE13=Lé lé lé lélé lé á and Gitár (bemelegítés)
TTITLE14=O lé lé, o lá lá
TTITLE15=Csak Berimbao
TTITLE16=Samba nu máá and gitár
EXTD=
EXTT0=
EXTT1=
EXTT2=
EXTT3=
EXTT4=
EXTT5=
EXTT6=
EXTT7=
EXTT8=
EXTT9=
EXTT10=
EXTT11=
EXTT12=
EXTT13=
EXTT14=
EXTT15=
EXTT16=
PLAYORDER=
